<svg xmlns="http://www.w3.org/2000/svg" xmlns:xlink="http://www.w3.org/1999/xlink" width="1920" zoomAndPan="magnify" viewBox="0 0 1440 809.999993" height="1080" preserveAspectRatio="xMidYMid meet" version="1.0"><path fill="#000000" d="M 670.050781 46.429688 C 498.308594 65.460938 358.359375 204.015625 337.632812 375.457031 C 336.964844 380.839844 336.410156 386.234375 335.972656 391.636719 C 335.53125 397.042969 335.210938 402.457031 335.003906 407.875 C 334.796875 413.296875 334.707031 418.71875 334.730469 424.140625 C 334.757812 429.566406 334.898438 434.984375 335.15625 440.402344 C 335.414062 445.820312 335.789062 451.230469 336.277344 456.632812 C 336.769531 462.035156 337.375 467.421875 338.09375 472.796875 C 338.816406 478.171875 339.652344 483.53125 340.601562 488.871094 C 341.550781 494.210938 342.617188 499.527344 343.792969 504.820312 C 344.972656 510.113281 346.265625 515.382812 347.667969 520.621094 C 349.074219 525.859375 350.589844 531.066406 352.214844 536.238281 C 353.84375 541.414062 355.582031 546.550781 357.429688 551.648438 C 359.277344 556.75 361.230469 561.804688 363.296875 566.820312 C 365.359375 571.835938 367.53125 576.804688 369.808594 581.730469 C 372.085938 586.652344 374.46875 591.523438 376.953125 596.34375 C 379.4375 601.164062 382.027344 605.929688 384.71875 610.636719 C 387.410156 615.347656 390.199219 619.996094 393.089844 624.589844 C 395.976562 629.179688 398.964844 633.703125 402.046875 638.167969 C 405.132812 642.628906 408.308594 647.023438 411.582031 651.347656 C 414.855469 655.675781 418.21875 659.929688 421.671875 664.109375 C 425.125 668.292969 428.667969 672.398438 432.296875 676.429688 C 435.929688 680.457031 439.644531 684.410156 443.445312 688.28125 C 447.242188 692.148438 451.125 695.9375 455.085938 699.640625 C 459.046875 703.347656 463.089844 706.964844 467.207031 710.496094 C 471.324219 714.027344 475.511719 717.46875 479.777344 720.820312 C 484.042969 724.171875 488.378906 727.433594 492.78125 730.597656 C 497.1875 733.765625 501.65625 736.835938 506.191406 739.808594 C 510.730469 742.785156 515.328125 745.660156 519.984375 748.4375 C 524.644531 751.214844 529.363281 753.894531 534.136719 756.46875 C 538.910156 759.042969 543.738281 761.515625 548.617188 763.886719 C 553.496094 766.253906 558.425781 768.515625 563.402344 770.675781 C 568.378906 772.832031 573.398438 774.882812 578.464844 776.824219 C 583.53125 778.765625 588.632812 780.597656 593.777344 782.324219 C 612.730469 785.351562 618.792969 773.613281 618.792969 763.398438 L 618.792969 699.390625 C 513.882812 722.175781 491.550781 648.675781 491.550781 648.675781 C 474.179688 604.742188 449.511719 593.003906 449.511719 593.003906 C 415.035156 569.523438 452.195312 570.300781 452.195312 570.300781 C 490.050781 572.980469 510.128906 609.300781 510.128906 609.300781 C 543.078125 666.847656 598.738281 649.800781 620.320312 640.714844 C 623.722656 616.109375 633.726562 599.4375 644.179688 589.972656 C 559.96875 580.511719 471.84375 547.945312 471.84375 403.707031 C 471.84375 361.679688 486.242188 327.984375 510.855469 301.101562 C 507.074219 291.640625 493.804688 252.261719 514.632812 201.148438 C 514.632812 201.148438 546.457031 190.90625 618.792969 239.773438 C 634.226562 235.617188 649.867188 232.492188 665.710938 230.398438 C 681.558594 228.300781 697.472656 227.253906 713.457031 227.253906 C 729.441406 227.253906 745.355469 228.300781 761.203125 230.398438 C 777.050781 232.492188 792.691406 235.617188 808.125 239.773438 C 880.511719 190.90625 912.28125 201.148438 912.28125 201.148438 C 933.085938 252.261719 919.84375 291.640625 916.0625 301.101562 C 940.671875 327.90625 955.070312 361.679688 955.070312 403.707031 C 955.070312 548.320312 866.4375 580.136719 782.011719 589.597656 C 795.628906 601.339844 808.125 624.445312 808.125 659.640625 L 808.125 763.398438 C 808.125 773.613281 814.183594 785.726562 833.511719 782.324219 C 839.003906 780.484375 844.449219 778.519531 849.847656 776.433594 C 855.246094 774.34375 860.597656 772.132812 865.894531 769.796875 C 871.191406 767.464844 876.433594 765.011719 881.621094 762.4375 C 886.808594 759.863281 891.929688 757.171875 896.992188 754.363281 C 902.054688 751.554688 907.050781 748.632812 911.980469 745.59375 C 916.910156 742.558594 921.765625 739.410156 926.550781 736.148438 C 931.332031 732.890625 936.042969 729.523438 940.671875 726.046875 C 945.300781 722.570312 949.847656 718.992188 954.316406 715.308594 C 958.78125 711.625 963.160156 707.839844 967.453125 703.953125 C 971.746094 700.070312 975.945312 696.089844 980.054688 692.011719 C 984.167969 687.9375 988.179688 683.765625 992.101562 679.507812 C 996.019531 675.246094 999.839844 670.898438 1003.558594 666.460938 C 1007.277344 662.023438 1010.894531 657.507812 1014.40625 652.90625 C 1017.917969 648.304688 1021.324219 643.625 1024.621094 638.867188 C 1027.921875 634.109375 1031.109375 629.277344 1034.183594 624.375 C 1037.261719 619.472656 1040.222656 614.5 1043.074219 609.460938 C 1045.921875 604.421875 1048.652344 599.320312 1051.269531 594.15625 C 1053.882812 588.992188 1056.378906 583.769531 1058.753906 578.492188 C 1061.132812 573.210938 1063.386719 567.882812 1065.515625 562.5 C 1067.648438 557.117188 1069.65625 551.691406 1071.539062 546.214844 C 1073.421875 540.742188 1075.175781 535.230469 1076.808594 529.675781 C 1078.4375 524.121094 1079.941406 518.53125 1081.3125 512.90625 C 1082.6875 507.285156 1083.933594 501.632812 1085.046875 495.953125 C 1086.160156 490.273438 1087.144531 484.570312 1088 478.84375 C 1088.851562 473.121094 1089.574219 467.378906 1090.164062 461.621094 C 1090.753906 455.859375 1091.214844 450.09375 1091.539062 444.3125 C 1091.867188 438.535156 1092.058594 432.75 1092.121094 426.960938 C 1092.179688 421.171875 1092.109375 415.386719 1091.90625 409.601562 C 1091.703125 403.816406 1091.363281 398.039062 1090.894531 392.269531 C 1090.425781 386.5 1089.824219 380.746094 1089.09375 375.003906 C 1088.359375 369.261719 1087.496094 363.539062 1086.5 357.835938 C 1085.507812 352.132812 1084.382812 346.457031 1083.125 340.808594 C 1081.871094 335.15625 1080.488281 329.539062 1078.972656 323.949219 C 1077.460938 318.363281 1075.820312 312.8125 1074.054688 307.300781 C 1072.289062 301.789062 1070.394531 296.320312 1068.378906 290.894531 C 1066.359375 285.46875 1064.21875 280.089844 1061.953125 274.761719 C 1059.691406 269.4375 1057.304688 264.164062 1054.800781 258.945312 C 1052.292969 253.726562 1049.667969 248.566406 1046.925781 243.46875 C 1044.183594 238.371094 1041.328125 233.339844 1038.355469 228.371094 C 1035.382812 223.40625 1032.296875 218.507812 1029.101562 213.683594 C 1025.902344 208.855469 1022.597656 204.105469 1019.183594 199.433594 C 1015.765625 194.757812 1012.246094 190.164062 1008.621094 185.652344 C 1004.996094 181.136719 1001.269531 176.710938 997.441406 172.367188 C 993.613281 168.027344 989.6875 163.773438 985.664062 159.609375 C 981.640625 155.449219 977.523438 151.378906 973.3125 147.40625 C 969.105469 143.433594 964.804688 139.554688 960.417969 135.78125 C 956.03125 132.003906 951.558594 128.328125 947.003906 124.753906 C 942.449219 121.183594 937.8125 117.71875 933.097656 114.359375 C 928.382812 110.996094 923.59375 107.746094 918.730469 104.605469 C 913.867188 101.464844 908.933594 98.4375 903.933594 95.523438 C 898.929688 92.609375 893.863281 89.8125 888.734375 87.128906 C 883.601562 84.445312 878.414062 81.882812 873.164062 79.4375 C 867.917969 76.996094 862.617188 74.671875 857.261719 72.46875 C 851.90625 70.265625 846.503906 68.1875 841.054688 66.234375 C 835.605469 64.28125 830.113281 62.453125 824.578125 60.75 C 819.046875 59.046875 813.476562 57.472656 807.871094 56.023438 C 802.265625 54.578125 796.628906 53.257812 790.964844 52.070312 C 785.296875 50.878906 779.605469 49.820312 773.890625 48.890625 C 768.175781 47.960938 762.445312 47.164062 756.691406 46.5 C 750.941406 45.832031 745.179688 45.300781 739.402344 44.898438 C 733.625 44.496094 727.84375 44.226562 722.058594 44.089844 C 716.269531 43.949219 710.480469 43.945312 704.691406 44.074219 C 698.902344 44.203125 693.121094 44.460938 687.34375 44.855469 C 681.570312 45.25 675.804688 45.773438 670.050781 46.429688 Z M 670.050781 46.429688 " fill-opacity="1" fill-rule="nonzero"/></svg>