<svg xmlns="http://www.w3.org/2000/svg" xmlns:xlink="http://www.w3.org/1999/xlink" width="1920" zoomAndPan="magnify" viewBox="0 0 1440 809.999993" height="1080" preserveAspectRatio="xMidYMid meet" version="1.0"><path fill="#000000" d="M 553.167969 0 C 422.433594 0 315 107.289062 315 238.167969 L 315 571.832031 C 315 702.566406 422.289062 810 553.167969 810 L 886.832031 810 C 1017.566406 810 1125 702.710938 1125 571.832031 L 1125 238.167969 C 1125 107.433594 1017.710938 0 886.832031 0 Z M 553.167969 73.636719 L 886.832031 73.636719 C 977.871094 73.636719 1051.363281 147.128906 1051.363281 238.167969 L 1051.363281 571.832031 C 1051.363281 662.871094 977.871094 736.363281 886.832031 736.363281 L 553.167969 736.363281 C 462.128906 736.363281 388.636719 662.871094 388.636719 571.832031 L 388.636719 238.167969 C 388.636719 147.128906 462.128906 73.636719 553.167969 73.636719 Z M 937.457031 154.175781 C 918.90625 154.175781 904.089844 168.988281 904.089844 187.542969 C 904.089844 206.09375 918.90625 220.910156 937.457031 220.910156 C 956.011719 220.910156 970.824219 206.09375 970.824219 187.542969 C 970.824219 168.988281 956.011719 154.175781 937.457031 154.175781 Z M 720 184.089844 C 598.472656 184.089844 499.089844 283.472656 499.089844 405 C 499.089844 526.527344 598.472656 625.910156 720 625.910156 C 841.527344 625.910156 940.910156 526.527344 940.910156 405 C 940.910156 283.472656 841.527344 184.089844 720 184.089844 Z M 720 257.726562 C 801.835938 257.726562 867.273438 323.164062 867.273438 405 C 867.273438 486.835938 801.835938 552.273438 720 552.273438 C 638.164062 552.273438 572.726562 486.835938 572.726562 405 C 572.726562 323.164062 638.164062 257.726562 720 257.726562 Z M 720 257.726562 " fill-opacity="1" fill-rule="nonzero"/></svg>