<svg xmlns="http://www.w3.org/2000/svg" xmlns:xlink="http://www.w3.org/1999/xlink" width="1920" zoomAndPan="magnify" viewBox="0 0 1440 809.999993" height="1080" preserveAspectRatio="xMidYMid meet" version="1.0"><path fill="#000000" d="M 720 0 C 497.25 0 315 182.25 315 405 C 315 627.75 497.25 810 720 810 C 942.75 810 1125 627.75 1125 405 C 1125 182.25 942.75 0 720 0 Z M 884.308594 583.441406 C 876.695312 583.441406 872.886719 579.636719 865.273438 575.828125 C 808.128906 541.527344 735.753906 522.492188 659.574219 522.492188 C 617.65625 522.492188 571.972656 530.105469 533.863281 537.71875 C 526.246094 537.71875 518.632812 541.527344 514.828125 541.527344 C 499.597656 541.527344 488.179688 530.105469 488.179688 514.875 C 488.179688 499.648438 495.792969 488.226562 511.019531 488.226562 C 560.550781 476.804688 610.082031 469.191406 663.421875 469.191406 C 751.023438 469.191406 831.050781 492.035156 899.617188 530.144531 C 907.230469 537.757812 914.84375 541.566406 914.84375 556.792969 C 907.152344 575.828125 895.730469 583.441406 884.308594 583.441406 Z M 926.183594 476.804688 C 918.570312 476.804688 910.957031 473 903.34375 469.191406 C 838.582031 427.273438 747.136719 404.433594 648.113281 404.433594 C 598.582031 404.433594 552.855469 412.046875 518.59375 419.660156 C 510.980469 423.46875 507.171875 423.46875 499.558594 423.46875 C 480.523438 423.46875 469.0625 408.238281 469.0625 392.972656 C 469.0625 373.9375 476.675781 366.324219 495.710938 358.667969 C 541.433594 347.246094 587.160156 335.824219 651.917969 335.824219 C 758.597656 335.824219 857.617188 362.476562 941.453125 412.007812 C 952.875 419.621094 960.488281 431.042969 960.488281 442.503906 C 956.683594 461.539062 945.261719 476.804688 926.183594 476.804688 Z M 975.71875 354.859375 C 968.101562 354.859375 964.296875 351.054688 952.875 347.246094 C 876.695312 305.328125 766.210938 278.679688 659.535156 278.679688 C 606.195312 278.679688 549.050781 286.292969 499.519531 297.714844 C 491.902344 297.714844 488.097656 301.523438 476.675781 301.523438 C 453.832031 305.371094 438.566406 286.292969 438.566406 263.453125 C 438.566406 240.609375 449.988281 229.148438 465.214844 225.34375 C 526.207031 210.113281 590.96875 202.5 659.535156 202.5 C 777.632812 202.5 899.535156 229.148438 994.792969 278.679688 C 1006.214844 286.292969 1017.632812 297.714844 1017.632812 316.792969 C 1013.828125 339.632812 998.558594 354.859375 975.71875 354.859375 Z M 975.71875 354.859375 " fill-opacity="1" fill-rule="nonzero"/></svg>